<svg xmlns="http://www.w3.org/2000/svg" xmlns:xlink="http://www.w3.org/1999/xlink" width="500" zoomAndPan="magnify" viewBox="0 0 375 374.999991" height="500" preserveAspectRatio="xMidYMid meet" version="1.0"><defs><g/><clipPath id="364fee225f"><path d="M 14.691406 57 L 374.691406 57 L 374.691406 274 L 14.691406 274 Z M 14.691406 57 " clip-rule="nonzero"/></clipPath><clipPath id="54a0e99955"><path d="M 8.042969 70.175781 L 53.792969 70.175781 L 53.792969 108.425781 L 8.042969 108.425781 Z M 8.042969 70.175781 " clip-rule="nonzero"/></clipPath></defs><g clip-path="url(#364fee225f)"><path fill="#6257e3" d="M 193.960938 65.445312 C 207.757812 74.332031 239.496094 94.582031 239.988281 93.457031 C 240.445312 92.363281 224.257812 75.308594 216.058594 66.78125 C 209.457031 66.277344 201.960938 65.820312 193.960938 65.445312 Z M 292.699219 116.523438 C 295.183594 116.617188 297.699219 116.734375 300.210938 116.878906 C 294.363281 110.738281 258.332031 73.382812 240.804688 69.578125 C 239.1875 69.21875 236.820312 68.859375 233.832031 68.480469 C 248.398438 80.226562 284.546875 109.484375 292.699219 116.523438 Z M 351.027344 159.234375 C 352.007812 161.035156 352.691406 163.613281 352.613281 167.355469 C 352.53125 171.257812 351.566406 175.632812 350.425781 179.492188 C 355.714844 173.21875 359.082031 165.214844 360.535156 161.210938 C 360.519531 161.019531 360.503906 160.835938 360.46875 160.640625 C 359.015625 160.003906 356.207031 159.285156 351.027344 159.234375 Z M 345.148438 159.890625 C 344.722656 159.875 344.328125 159.726562 344.007812 159.515625 C 339.871094 159.859375 334.808594 160.527344 328.617188 161.671875 C 316.710938 163.859375 305.585938 168.742188 296.523438 174.085938 C 283.535156 181.710938 274.847656 189.390625 274.679688 191.203125 C 275.203125 191.53125 288.207031 191.105469 302.074219 190.550781 C 317.445312 189.925781 333.601562 188.589844 337.4375 187.984375 C 337.503906 187.96875 337.617188 187.953125 337.78125 187.90625 C 339.742188 187.496094 341.570312 186.746094 343.269531 185.746094 C 344.921875 181.648438 347.777344 173.675781 347.925781 167.257812 C 348.085938 160.003906 345.148438 159.890625 345.148438 159.890625 Z M 24.945312 165.753906 C 24.945312 165.753906 41.328125 169.984375 56.339844 175.441406 C 71.828125 181.042969 85.953125 187.886719 87.226562 190.042969 C 89.710938 194.289062 83.277344 197 81.101562 197.101562 C 78.914062 197.199219 31.902344 198.144531 31.902344 196.691406 C 31.902344 195.238281 35.9375 193.472656 39.46875 193.667969 C 43.011719 193.878906 82.867188 193.261719 82.246094 191.1875 C 81.625 189.113281 51.097656 175.605469 40.917969 172.289062 C 30.761719 168.972656 24.945312 165.753906 24.945312 165.753906 Z M 328.160156 206.785156 C 331.363281 206.785156 334.253906 208.078125 336.359375 210.183594 C 338.453125 212.273438 339.757812 215.183594 339.757812 218.382812 C 339.757812 221.585938 338.453125 224.476562 336.359375 226.582031 C 334.253906 228.675781 331.363281 229.964844 328.160156 229.964844 C 324.960938 229.964844 322.050781 228.675781 319.960938 226.582031 C 317.871094 224.476562 316.5625 221.585938 316.5625 218.382812 C 316.5625 215.183594 317.871094 212.273438 319.960938 210.183594 C 322.050781 208.078125 324.960938 206.785156 328.160156 206.785156 Z M 292.976562 188.019531 C 291.6875 188.066406 290.589844 187.050781 290.523438 185.761719 C 290.476562 184.472656 291.472656 183.378906 292.761719 183.3125 C 292.875 183.3125 332.046875 181.582031 335.429688 179.179688 C 338.382812 177.074219 338.582031 166.339844 338.597656 166.308594 C 338.617188 165.019531 339.691406 163.988281 340.984375 164.007812 C 342.273438 164.039062 343.300781 165.101562 343.285156 166.410156 C 343.285156 166.441406 343.058594 179.523438 338.140625 183.003906 C 333.632812 186.222656 293.089844 188 292.976562 188.019531 Z M 329.140625 214.90625 C 328.078125 213.84375 326.609375 213.1875 324.992188 213.1875 C 323.375 213.1875 321.902344 213.84375 320.824219 214.90625 C 319.761719 215.96875 319.109375 217.4375 319.109375 219.070312 C 319.109375 220.6875 319.761719 222.15625 320.824219 223.21875 C 321.902344 224.28125 323.375 224.933594 324.992188 224.933594 C 326.609375 224.933594 328.078125 224.28125 329.140625 223.21875 C 330.203125 222.15625 330.871094 220.6875 330.871094 219.070312 C 330.871094 217.4375 330.203125 215.96875 329.140625 214.90625 Z M 75.285156 220.558594 C 75.285156 220.558594 92.308594 201.054688 100.820312 199.386719 C 109.347656 197.71875 249.476562 193.980469 269.40625 202.082031 C 289.332031 210.183594 318.410156 242.363281 316.957031 249.011719 C 316.695312 250.1875 316.382812 251.179688 316.074219 252.015625 L 364.894531 251.691406 C 365.875 251.691406 367.183594 248.40625 368.015625 245.125 L 368.046875 245.007812 C 368.324219 243.914062 368.523438 242.835938 368.605469 241.855469 C 368.652344 241.25 368.671875 240.695312 368.636719 240.238281 L 349.964844 240.09375 C 348.234375 240.09375 322.964844 238.6875 322.964844 236.957031 C 322.964844 235.242188 348.234375 233.835938 349.964844 233.835938 L 360.222656 233.917969 C 360.910156 225.277344 362.835938 198.046875 361.582031 173.9375 C 356.992188 182.269531 349.589844 191.824219 339.085938 194.046875 C 338.992188 194.0625 338.746094 194.109375 338.382812 194.160156 C 334.402344 194.796875 317.886719 196.167969 302.316406 196.804688 C 285.480469 197.476562 269.4375 196.824219 268.523438 192.492188 C 268.488281 192.296875 268.460938 192.101562 268.460938 191.902344 C 268.425781 191.074219 268.734375 190.289062 269.273438 189.699219 C 271.886719 184.914062 280.792969 176.078125 293.351562 168.695312 C 302.957031 163.027344 314.78125 157.863281 327.492188 155.511719 C 344.035156 152.457031 353.867188 152.980469 359.570312 154.285156 C 357.90625 144.503906 355.226562 136.859375 351.0625 133.722656 C 336.34375 122.679688 293.386719 118.808594 271.972656 123.023438 C 270.367188 123.53125 271.988281 122.8125 267.363281 124.640625 C 262.707031 126.46875 232.605469 179.605469 229.484375 179.605469 C 226.378906 179.605469 241.949219 147.851562 243.613281 142.445312 C 244.609375 139.226562 246.191406 134.570312 245.785156 130.75 C 244.753906 130.421875 244.332031 129.996094 244.332031 129.996094 C 244.332031 129.996094 244.136719 129.167969 232.917969 127.285156 C 221.710938 125.421875 120.601562 125.636719 113.542969 128.542969 C 106.488281 131.453125 107.726562 137.054688 109.390625 142.445312 C 111.0625 147.851562 126.628906 179.605469 123.507812 179.605469 C 120.402344 179.605469 96.523438 133.933594 88.632812 130.8125 C 80.746094 127.710938 36.625 121.894531 36.625 121.894531 C 36.625 121.894531 90.917969 123.351562 95.789062 122.828125 C 100.671875 122.304688 103.886719 116.179688 107.417969 115.984375 C 109.390625 115.867188 155.324219 115.964844 195.476562 116.097656 C 185.921875 104.792969 156.5 69.96875 154.230469 66.460938 C 153.757812 65.707031 153.496094 65.019531 153.382812 64.398438 C 119.765625 64.335938 87 66.425781 75.761719 73.105469 C 51.800781 87.347656 32.164062 107.570312 32.164062 107.570312 C 32.164062 107.570312 53.546875 73.726562 80.125 64.382812 C 106.699219 55.039062 227.117188 54.421875 256.386719 63.355469 C 285.65625 72.273438 312.855469 112.144531 312.855469 112.144531 L 313.445312 112.8125 C 315.78125 109.074219 319.960938 103.355469 325.054688 100.871094 C 332.945312 97.035156 370.417969 96.203125 372.277344 100.660156 C 374.140625 105.136719 362.835938 119.039062 352.664062 119.347656 C 342.484375 119.660156 325.125 116.878906 320.171875 118.644531 C 320.859375 118.726562 321.5625 118.824219 322.230469 118.925781 C 349.234375 122.761719 361.21875 129.574219 363.933594 139.539062 C 364.929688 143.261719 368.097656 154.449219 369.078125 171.210938 C 370.433594 194.503906 370.136719 224.378906 369.992188 233.996094 C 372.6875 234.03125 374.191406 235.761719 374.726562 238.507812 C 374.945312 239.648438 374.972656 240.972656 374.859375 242.394531 C 374.746094 243.699219 374.484375 245.125 374.125 246.546875 L 374.089844 246.691406 C 372.636719 252.292969 369.191406 257.910156 364.910156 257.945312 L 364.699219 257.945312 C 364.371094 262.242188 363.621094 269.574219 362.316406 270.585938 C 361.988281 270.847656 360.144531 271.046875 357.316406 271.191406 L 357.300781 271.191406 C 349.425781 271.617188 333.878906 271.683594 322.066406 271.632812 C 237.605469 272.613281 30.109375 274.816406 23.460938 272.664062 C 17.054688 270.601562 210.257812 267.796875 300.425781 266.601562 C 300.410156 266.40625 300.410156 266.226562 300.441406 266.03125 C 300.71875 264.152344 300.292969 259.445312 299.949219 256.328125 C 262.921875 256.507812 150.308594 257.015625 29.878906 257.390625 L 29.878906 257.421875 C 22.609375 257.960938 14.851562 258.222656 14.769531 256.902344 C 14.6875 255.507812 22.953125 253.992188 30.335938 252.164062 C 169.339844 250.710938 294.984375 249.042969 296.195312 247.113281 C 296.8125 246.101562 295.574219 243.699219 293.1875 240.597656 C 252.238281 239.960938 103.859375 236.726562 97.191406 233.851562 C 97.191406 233.851562 238.828125 231.140625 284.351562 230.84375 C 281.328125 227.839844 278.015625 224.769531 274.746094 221.941406 C 230.285156 221.765625 101.359375 218.335938 97.40625 216.621094 C 93.515625 214.921875 222.136719 216.128906 267.398438 215.949219 C 263.507812 213.007812 260.128906 210.855469 257.988281 210.183594 C 248.855469 207.273438 102.910156 202.914062 97.503906 204.992188 C 92.113281 207.066406 78.195312 222.222656 76.742188 221.390625 C 75.285156 220.558594 75.285156 220.558594 75.285156 220.558594 " fill-opacity="1" fill-rule="evenodd"/></g><g clip-path="url(#54a0e99955)"><path fill="#ff8210" d="M 22.878906 70.492188 C 22.828125 70.296875 22.640625 70.175781 22.441406 70.226562 C 22.3125 70.253906 22.203125 70.363281 22.175781 70.492188 C 21.542969 72.867188 19.976562 77.253906 16.535156 79.933594 C 14.136719 81.796875 11.335938 83.082031 8.367188 83.6875 C 8.171875 83.726562 8.042969 83.914062 8.082031 84.113281 C 8.109375 84.25 8.210938 84.347656 8.339844 84.390625 C 10.753906 85.0625 14.949219 86.535156 17.078125 89.039062 C 18.761719 91.019531 20.253906 95.976562 20.910156 98.402344 C 20.96875 98.589844 21.164062 98.710938 21.355469 98.652344 C 21.472656 98.621094 21.570312 98.523438 21.601562 98.402344 C 22.273438 95.9375 24.015625 90.839844 27.273438 88.675781 C 30.183594 86.734375 33.417969 85.765625 35.25 85.328125 C 35.449219 85.28125 35.554688 85.082031 35.507812 84.882812 C 35.476562 84.765625 35.386719 84.664062 35.269531 84.636719 C 33.0625 83.984375 28.953125 82.507812 27.273438 80.300781 C 24.660156 76.875 23.414062 72.75 22.878906 70.492188 Z M 41.179688 90.832031 C 41.148438 90.714844 41.03125 90.644531 40.910156 90.671875 C 40.832031 90.691406 40.773438 90.753906 40.753906 90.832031 C 40.367188 92.285156 39.40625 94.96875 37.296875 96.601562 C 35.832031 97.738281 34.121094 98.523438 32.300781 98.886719 C 32.179688 98.90625 32.101562 99.027344 32.132812 99.144531 C 32.152344 99.226562 32.210938 99.292969 32.289062 99.3125 C 33.765625 99.730469 36.339844 100.621094 37.632812 102.152344 C 38.664062 103.363281 39.574219 106.398438 39.980469 107.886719 C 40.011719 108.003906 40.136719 108.074219 40.246094 108.042969 C 40.328125 108.023438 40.375 107.964844 40.40625 107.886719 C 40.820312 106.378906 41.878906 103.261719 43.871094 101.9375 C 45.652344 100.75 47.632812 100.15625 48.75 99.886719 C 48.867188 99.859375 48.9375 99.738281 48.90625 99.621094 C 48.886719 99.542969 48.828125 99.480469 48.757812 99.460938 C 47.402344 99.054688 44.898438 98.164062 43.871094 96.808594 C 42.265625 94.742188 41.503906 92.21875 41.179688 90.832031 Z M 48.414062 74.285156 C 48.394531 74.203125 48.3125 74.15625 48.234375 74.175781 C 48.183594 74.183594 48.144531 74.222656 48.125 74.285156 C 47.867188 75.253906 47.234375 77.023438 45.828125 78.113281 C 44.859375 78.867188 43.722656 79.390625 42.515625 79.636719 C 42.433594 79.65625 42.386719 79.726562 42.394531 79.804688 C 42.40625 79.867188 42.445312 79.90625 42.503906 79.914062 C 43.484375 80.191406 45.1875 80.785156 46.058594 81.804688 C 46.738281 82.605469 47.34375 84.625 47.609375 85.605469 C 47.632812 85.683594 47.710938 85.726562 47.789062 85.703125 C 47.839844 85.695312 47.878906 85.65625 47.886719 85.605469 C 48.164062 84.605469 48.867188 82.539062 50.195312 81.65625 C 51.371094 80.867188 52.6875 80.480469 53.441406 80.300781 C 53.519531 80.28125 53.570312 80.203125 53.550781 80.121094 C 53.539062 80.074219 53.5 80.035156 53.449219 80.015625 C 52.550781 79.746094 50.886719 79.152344 50.203125 78.253906 C 49.144531 76.875 48.628906 75.203125 48.414062 74.285156 Z M 48.414062 74.285156 " fill-opacity="1" fill-rule="nonzero"/></g><g fill="#ff8210" fill-opacity="1"><g transform="translate(7.120933, 332.551502)"><g><path d="M 2.03125 -21.671875 C 2.03125 -25.929688 2.953125 -29.734375 4.796875 -33.078125 C 6.640625 -36.421875 9.210938 -39.023438 12.515625 -40.890625 C 15.828125 -42.765625 19.570312 -43.703125 23.75 -43.703125 C 28.882812 -43.703125 33.273438 -42.347656 36.921875 -39.640625 C 40.578125 -36.929688 43.019531 -33.238281 44.25 -28.5625 L 32.6875 -28.5625 C 31.820312 -30.363281 30.597656 -31.734375 29.015625 -32.671875 C 27.441406 -33.617188 25.648438 -34.09375 23.640625 -34.09375 C 20.390625 -34.09375 17.757812 -32.960938 15.75 -30.703125 C 13.738281 -28.453125 12.734375 -25.441406 12.734375 -21.671875 C 12.734375 -17.890625 13.738281 -14.867188 15.75 -12.609375 C 17.757812 -10.359375 20.390625 -9.234375 23.640625 -9.234375 C 25.648438 -9.234375 27.441406 -9.703125 29.015625 -10.640625 C 30.597656 -11.585938 31.820312 -12.960938 32.6875 -14.765625 L 44.25 -14.765625 C 43.019531 -10.085938 40.578125 -6.40625 36.921875 -3.71875 C 33.273438 -1.03125 28.882812 0.3125 23.75 0.3125 C 19.570312 0.3125 15.828125 -0.617188 12.515625 -2.484375 C 9.210938 -4.359375 6.640625 -6.957031 4.796875 -10.28125 C 2.953125 -13.601562 2.03125 -17.398438 2.03125 -21.671875 Z M 2.03125 -21.671875 "/></g></g></g><g fill="#ff8210" fill-opacity="1"><g transform="translate(55.549517, 332.551502)"><g><path d="M 30.71875 -7.625 L 14.59375 -7.625 L 12 0 L 0.984375 0 L 16.625 -43.203125 L 28.796875 -43.203125 L 44.4375 0 L 33.296875 0 Z M 28 -15.75 L 22.65625 -31.578125 L 17.359375 -15.75 Z M 28 -15.75 "/></g></g></g><g fill="#ff8210" fill-opacity="1"><g transform="translate(102.439717, 332.551502)"><g><path d="M 25.84375 0 L 16.859375 -16.3125 L 14.34375 -16.3125 L 14.34375 0 L 3.8125 0 L 3.8125 -43.203125 L 21.484375 -43.203125 C 24.890625 -43.203125 27.789062 -42.609375 30.1875 -41.421875 C 32.59375 -40.234375 34.390625 -38.601562 35.578125 -36.53125 C 36.765625 -34.457031 37.359375 -32.148438 37.359375 -29.609375 C 37.359375 -26.734375 36.546875 -24.164062 34.921875 -21.90625 C 33.304688 -19.65625 30.914062 -18.054688 27.75 -17.109375 L 37.734375 0 Z M 14.34375 -23.75 L 20.859375 -23.75 C 22.785156 -23.75 24.234375 -24.222656 25.203125 -25.171875 C 26.171875 -26.117188 26.65625 -27.453125 26.65625 -29.171875 C 26.65625 -30.816406 26.171875 -32.109375 25.203125 -33.046875 C 24.234375 -33.992188 22.785156 -34.46875 20.859375 -34.46875 L 14.34375 -34.46875 Z M 14.34375 -23.75 "/></g></g></g><g fill="#ff8210" fill-opacity="1"><g transform="translate(144.099424, 332.551502)"><g><path d="M 19.453125 0.4375 C 16.285156 0.4375 13.453125 -0.0703125 10.953125 -1.09375 C 8.453125 -2.125 6.453125 -3.644531 4.953125 -5.65625 C 3.453125 -7.664062 2.660156 -10.085938 2.578125 -12.921875 L 13.78125 -12.921875 C 13.945312 -11.328125 14.5 -10.109375 15.4375 -9.265625 C 16.382812 -8.421875 17.617188 -8 19.140625 -8 C 20.703125 -8 21.929688 -8.359375 22.828125 -9.078125 C 23.734375 -9.796875 24.1875 -10.789062 24.1875 -12.0625 C 24.1875 -13.125 23.828125 -14.003906 23.109375 -14.703125 C 22.390625 -15.398438 21.503906 -15.972656 20.453125 -16.421875 C 19.410156 -16.878906 17.925781 -17.394531 16 -17.96875 C 13.207031 -18.832031 10.929688 -19.691406 9.171875 -20.546875 C 7.410156 -21.410156 5.890625 -22.679688 4.609375 -24.359375 C 3.335938 -26.046875 2.703125 -28.242188 2.703125 -30.953125 C 2.703125 -34.972656 4.160156 -38.125 7.078125 -40.40625 C 9.992188 -42.6875 13.789062 -43.828125 18.46875 -43.828125 C 23.226562 -43.828125 27.0625 -42.6875 29.96875 -40.40625 C 32.882812 -38.125 34.445312 -34.953125 34.65625 -30.890625 L 23.265625 -30.890625 C 23.179688 -32.285156 22.664062 -33.382812 21.71875 -34.1875 C 20.78125 -34.988281 19.570312 -35.390625 18.09375 -35.390625 C 16.820312 -35.390625 15.796875 -35.050781 15.015625 -34.375 C 14.234375 -33.695312 13.84375 -32.722656 13.84375 -31.453125 C 13.84375 -30.054688 14.5 -28.96875 15.8125 -28.1875 C 17.125 -27.40625 19.175781 -26.566406 21.96875 -25.671875 C 24.757812 -24.722656 27.023438 -23.816406 28.765625 -22.953125 C 30.515625 -22.097656 32.023438 -20.847656 33.296875 -19.203125 C 34.566406 -17.554688 35.203125 -15.441406 35.203125 -12.859375 C 35.203125 -10.398438 34.578125 -8.164062 33.328125 -6.15625 C 32.078125 -4.144531 30.257812 -2.539062 27.875 -1.34375 C 25.5 -0.15625 22.691406 0.4375 19.453125 0.4375 Z M 19.453125 0.4375 "/></g></g></g><g fill="#6257e3" fill-opacity="1"><g transform="translate(183.488109, 332.551502)"><g><path d="M 3.015625 -8 L 3.015625 -16.5 L 22.46875 -44.3125 L 34.21875 -44.3125 L 34.21875 -17.109375 L 39.265625 -17.109375 L 39.265625 -8 L 34.21875 -8 L 34.21875 0 L 23.703125 0 L 23.703125 -8 Z M 24.4375 -32.75 L 14.09375 -17.109375 L 24.4375 -17.109375 Z M 24.4375 -32.75 "/></g></g></g><g fill="#ff8210" fill-opacity="1"><g transform="translate(226.695142, 332.551502)"><g><path d="M 41.234375 -43.203125 L 41.234375 0 L 30.71875 0 L 30.71875 -17.78125 L 14.34375 -17.78125 L 14.34375 0 L 3.8125 0 L 3.8125 -43.203125 L 14.34375 -43.203125 L 14.34375 -26.28125 L 30.71875 -26.28125 L 30.71875 -43.203125 Z M 41.234375 -43.203125 "/></g></g></g><g fill="#ff8210" fill-opacity="1"><g transform="translate(273.216132, 332.551502)"><g><path d="M 14.34375 -43.203125 L 14.34375 0 L 3.8125 0 L 3.8125 -43.203125 Z M 14.34375 -43.203125 "/></g></g></g><g fill="#ff8210" fill-opacity="1"><g transform="translate(292.907757, 332.551502)"><g><path d="M 25.84375 0 L 16.859375 -16.3125 L 14.34375 -16.3125 L 14.34375 0 L 3.8125 0 L 3.8125 -43.203125 L 21.484375 -43.203125 C 24.890625 -43.203125 27.789062 -42.609375 30.1875 -41.421875 C 32.59375 -40.234375 34.390625 -38.601562 35.578125 -36.53125 C 36.765625 -34.457031 37.359375 -32.148438 37.359375 -29.609375 C 37.359375 -26.734375 36.546875 -24.164062 34.921875 -21.90625 C 33.304688 -19.65625 30.914062 -18.054688 27.75 -17.109375 L 37.734375 0 Z M 14.34375 -23.75 L 20.859375 -23.75 C 22.785156 -23.75 24.234375 -24.222656 25.203125 -25.171875 C 26.171875 -26.117188 26.65625 -27.453125 26.65625 -29.171875 C 26.65625 -30.816406 26.171875 -32.109375 25.203125 -33.046875 C 24.234375 -33.992188 22.785156 -34.46875 20.859375 -34.46875 L 14.34375 -34.46875 Z M 14.34375 -23.75 "/></g></g></g><g fill="#ff8210" fill-opacity="1"><g transform="translate(334.567464, 332.551502)"><g><path d="M 14.34375 -34.78125 L 14.34375 -26.03125 L 28.4375 -26.03125 L 28.4375 -17.90625 L 14.34375 -17.90625 L 14.34375 -8.4375 L 30.28125 -8.4375 L 30.28125 0 L 3.8125 0 L 3.8125 -43.203125 L 30.28125 -43.203125 L 30.28125 -34.78125 Z M 14.34375 -34.78125 "/></g></g></g></svg>